<?xml version="1.0" encoding="UTF-8" standalone="no"?>
<!-- Generator: Adobe Illustrator 16.0.3, SVG Export Plug-In . SVG Version: 6.00 Build 0)  -->

<svg
   version="1.1"
   id="Capa_1"
   x="0px"
   y="0px"
   width="2745.8984"
   height="1080"
   viewBox="0 0 2745.8983 1080"
   enable-background="new 0 0 595.28 841.89"
   xml:space="preserve"
   sodipodi:docname="femsa-comercio.svg"
   inkscape:version="1.1 (c68e22c387, 2021-05-23)"
   xmlns:inkscape="http://www.inkscape.org/namespaces/inkscape"
   xmlns:sodipodi="http://sodipodi.sourceforge.net/DTD/sodipodi-0.dtd"
   xmlns="http://www.w3.org/2000/svg"
   xmlns:svg="http://www.w3.org/2000/svg"><defs
   id="defs59" /><sodipodi:namedview
   id="namedview57"
   pagecolor="#ffffff"
   bordercolor="#666666"
   borderopacity="1.0"
   inkscape:pageshadow="2"
   inkscape:pageopacity="0.0"
   inkscape:pagecheckerboard="0"
   showgrid="false"
   fit-margin-top="0"
   fit-margin-left="0"
   fit-margin-right="0"
   fit-margin-bottom="0"
   inkscape:zoom="0.17470003"
   inkscape:cx="1954.7793"
   inkscape:cy="941.61403"
   inkscape:window-width="1920"
   inkscape:window-height="1017"
   inkscape:window-x="1912"
   inkscape:window-y="-8"
   inkscape:window-maximized="1"
   inkscape:current-layer="Capa_1" />

<g
   id="g1939"
   transform="matrix(5.0108222,0,0,5.0108222,-6187.8398,8.6387374)"><g
     id="g1753"
     transform="matrix(0.75345393,0,0,0.75345393,379.68001,-67.506636)"><path
       fill-rule="evenodd"
       clip-rule="evenodd"
       fill="#837669"
       d="m 1400.0809,322.00567 c 0,14.09 -10e-4,28.18 10e-4,42.27 0,3.908 2.7,4.364 5.728,4.654 1.085,0.104 3.138,-0.284 2.721,1.886 -0.281,1.468 -1.762,1.23 -2.919,1.121 -5.324,-0.503 -10.643,-0.443 -15.967,0.019 -1.132,0.099 -2.614,0.271 -2.735,-1.338 -0.129,-1.717 1.446,-1.563 2.532,-1.577 4.402,-0.058 5.917,-2.277 6.047,-6.593 0.446,-14.824 0.295,-29.644 0.132,-44.466 -0.045,-4.073 -1.031,-7.331 -6.199,-6.896 -1.104,0.093 -2.624,0.062 -2.42,-1.663 0.197,-1.664 1.716,-1.133 2.795,-1.237 0.165,-0.016 0.337,0.028 0.499,0 9.792,-1.71 15.947,1.028 19.58,11.513 4.058,11.711 10.573,22.573 16.042,33.793 0.712,1.46 1.563,2.853 2.716,4.941 7.128,-15.005 14.225,-29.298 20.671,-43.879 2.101,-4.75 4.271,-7.345 9.757,-6.44 2.917,0.48 5.982,0.049 8.98,0.071 0.822,0.006 1.738,0.086 1.854,1.184 0.139,1.321 -0.748,1.857 -1.838,1.726 -6.612,-0.803 -6.73,3.732 -6.749,8.224 -0.06,13.993 -0.033,27.985 -0.07,41.978 -0.012,4.363 0.673,8.024 6.356,7.728 1.061,-0.056 2.647,-0.056 2.357,1.711 -0.265,1.614 -1.707,1.259 -2.834,1.146 -6.821,-0.683 -13.645,-0.322 -20.469,-0.093 -1.111,0.038 -2.558,0.508 -2.576,-1.327 -0.014,-1.371 1.255,-1.459 2.196,-1.415 5.879,0.271 6.681,-3.286 6.627,-8.076 -0.152,-13.488 -0.054,-26.979 -0.054,-40.561 -1.909,-0.087 -1.898,1.609 -2.359,2.583 -7.329,15.489 -15.306,30.676 -21.801,46.556 -0.478,1.166 -0.688,2.899 -2.369,2.8 -1.593,-0.095 -1.743,-1.855 -2.294,-2.992 -6.748,-13.924 -13.446,-27.872 -20.165,-41.81 -0.934,-1.937 -1.905,-3.855 -2.859,-5.782 -0.304,0.078 -0.609,0.159 -0.914,0.241 z"
       id="path14-7" /><path
       fill-rule="evenodd"
       clip-rule="evenodd"
       fill="#817668"
       d="m 1547.9879,308.21867 c 5.491,0 10.993,-0.211 16.472,0.056 6.155,0.3 11.396,2.427 13.654,8.874 2.136,6.099 0.202,12.48 -5.077,17.038 -2.571,2.22 -5.562,3.612 -8.808,4.496 -2.161,0.588 -2.644,1.478 -1.114,3.438 6.439,8.256 12.769,16.599 19.139,24.909 0.101,0.132 0.256,0.234 0.319,0.381 0.811,1.862 4.946,0.682 3.987,3.289 -0.786,2.137 -3.888,0.479 -5.893,0.928 -5.01,1.122 -7.875,-1.373 -10.598,-5.295 -5.875,-8.461 -11.824,-16.892 -18.593,-24.697 -0.881,-1.016 -2.87,-1.934 -1.85,-3.646 0.72,-1.208 2.452,-0.546 3.729,-0.584 8.836,-0.265 13.704,-3.255 15.652,-9.69 2.279,-7.527 -1.174,-13.714 -8.756,-15.643 -0.959,-0.244 -1.947,-0.443 -2.932,-0.511 -10.256,-0.705 -11.219,0.189 -11.653,10.242 -0.59,13.639 -0.604,27.268 -0.046,40.912 0.164,4.012 1.164,6.324 5.515,6.343 1.138,0.005 3.099,-0.465 2.778,1.715 -0.244,1.664 -1.807,1.015 -2.885,0.964 -6.485,-0.309 -12.962,-0.389 -19.444,0.205 -1.256,0.115 -3.445,0.882 -3.47,-1.489 -0.021,-1.977 1.999,-1.389 3.142,-1.432 4.283,-0.161 5.628,-2.462 5.599,-6.477 -0.109,-14.98 -0.126,-29.963 -10e-4,-44.943 0.036,-4.313 -1.418,-6.66 -6.001,-6.496 -1.063,0.038 -2.642,0.35 -2.738,-1.336 -0.127,-2.196 1.74,-1.568 2.896,-1.582 5.658,-0.066 11.316,-0.03 16.976,-0.03 10e-4,0.02 10e-4,0.041 10e-4,0.061 z"
       id="path16-2" /><path
       fill-rule="evenodd"
       clip-rule="evenodd"
       fill="#817668"
       d="m 1714.3679,373.27967 c -19.305,0.018 -32.207,-13.272 -32.131,-33.096 0.076,-19.693 14.267,-33.524 34.432,-33.561 20.713,-0.036 33.802,11.954 33.927,31.079 0.133,20.589 -15.109,35.558 -36.228,35.578 z"
       id="path18-7" /><path
       fill-rule="evenodd"
       clip-rule="evenodd"
       fill="#817668"
       d="m 1384.0929,338.35767 c 0,20.14 -15.184,34.945 -35.783,34.896 -19.882,-0.046 -32.424,-12.932 -32.354,-33.239 0.069,-19.884 14.316,-33.467 35.025,-33.395 20.488,0.073 33.114,12.176 33.112,31.738 z"
       id="path20-3" /><path
       fill-rule="evenodd"
       clip-rule="evenodd"
       fill="#827668"
       d="m 1497.1459,308.14067 c 7.163,0.005 14.326,0.031 21.489,-0.01 2.534,-0.015 3.635,0.795 3.043,3.583 -0.549,2.583 -0.636,5.269 -0.87,7.914 -0.109,1.233 -0.265,2.447 -1.813,2.479 -1.494,0.031 -1.169,-1.342 -1.37,-2.203 -1.686,-7.211 -1.672,-7.274 -9.366,-7.543 -4.323,-0.151 -8.658,0.018 -12.982,-0.109 -2.835,-0.083 -4.287,0.748 -4.218,3.938 0.128,5.826 0,11.662 -0.183,17.489 -0.08,2.536 0.749,3.639 3.395,3.527 3.825,-0.162 7.667,0.059 11.488,-0.145 3.392,-0.18 6.882,-0.517 6.411,-5.465 -0.094,-0.983 0.457,-2.202 1.61,-2.165 1.728,0.056 1.321,1.628 1.331,2.69 0.05,4.994 0.039,9.989 0.013,14.983 -0.01,1.108 0.276,2.6 -1.431,2.647 -1.548,0.044 -1.833,-1.243 -1.734,-2.476 0.406,-5.073 -2.52,-6.055 -6.833,-6.158 -14.299,-0.342 -14.296,-0.434 -14.304,13.672 -0.01,12.666 -0.01,12.668 12.878,12.703 1.999,0.006 4,0.024 5.998,-0.036 7.643,-0.233 7.976,-0.501 10.089,-7.938 0.354,-1.244 0.31,-3.09 2.009,-2.972 1.98,0.137 1.289,2.051 1.184,3.207 -1.201,13.091 1.623,12.182 -12.261,12.282 -11.15,0.081 -22.3,-1.042 -33.46,-0.113 -1.107,0.092 -2.658,0.437 -2.962,-1.049 -0.448,-2.189 1.556,-1.771 2.681,-1.844 3.956,-0.255 4.894,-2.721 4.893,-6.113 0,-15.327 -0.021,-30.655 0.085,-45.982 0.028,-3.961 -1.528,-5.92 -5.592,-5.804 -1.231,0.035 -3.105,0.265 -2.941,-1.692 0.161,-1.933 2.042,-1.264 3.232,-1.273 6.83,-0.059 13.661,-0.028 20.491,-0.024 z"
       id="path22-1" /><path
       fill-rule="evenodd"
       clip-rule="evenodd"
       fill="#827668"
       d="m 1311.9619,363.85467 c 0.031,2.36 -0.701,4.182 -2.911,5.219 -12.542,5.885 -32.49,6.566 -44.935,-4.099 -10.928,-9.365 -13.567,-21.656 -9.842,-34.928 3.752,-13.363 13.846,-20.257 27.195,-22.627 9.387,-1.666 18.531,-0.285 27.606,2.264 2.404,0.676 3.325,1.468 2.583,4.109 -0.803,2.859 -1.044,5.877 -1.541,8.824 -0.151,0.893 -0.577,1.602 -1.592,1.526 -0.708,-0.052 -1.268,-0.536 -1.292,-1.274 -0.124,-3.891 -0.248,-7.847 -4.293,-9.939 -5.709,-2.952 -11.934,-3.009 -18.083,-2.366 -11.153,1.166 -19.035,8.463 -21.146,19.504 -2.289,11.972 -0.777,23.269 9.168,31.396 10.526,8.603 22.55,8.741 34.875,3.881 1.308,-0.516 2.311,-1.903 4.208,-1.49 z"
       id="path24-5" /><path
       fill-rule="evenodd"
       clip-rule="evenodd"
       fill="#827768"
       d="m 1649.0719,362.95567 c -0.743,3.097 -1.227,4.827 -3.215,6.009 -13.018,7.737 -36.678,4.958 -47.204,-5.814 -9.603,-9.828 -11.349,-21.794 -7.39,-34.282 3.993,-12.596 13.856,-19.084 26.539,-21.426 9.548,-1.764 18.871,-0.311 28.091,2.317 2.015,0.573 3.173,1.072 2.362,3.7 -0.87,2.82 -0.953,5.884 -1.38,8.842 -0.156,1.083 -0.584,1.948 -1.86,1.83 -1.126,-0.104 -1.024,-1.08 -1.184,-1.871 -1.837,-9.105 -4.41,-11.293 -13.927,-11.856 -18.235,-1.081 -29.319,7.752 -30.206,24.072 -1.092,20.105 9.653,32.979 28.099,33.853 7.318,0.344 14.079,-1.437 21.275,-5.374 z"
       id="path26-4" /><path
       fill-rule="evenodd"
       clip-rule="evenodd"
       fill="#847767"
       d="m 1666.1829,371.40967 c -3.807,0.197 -7.292,0.408 -10.779,0.54 -1.121,0.042 -2.563,0.201 -2.606,-1.486 -0.036,-1.376 1.205,-1.43 2.179,-1.395 5.157,0.186 6.227,-2.682 6.268,-7.263 0.129,-14.632 0.445,-29.256 -0.019,-43.892 -0.136,-4.301 -0.9,-7.242 -6.047,-6.77 -1.153,0.106 -2.519,-0.083 -2.298,-1.782 0.176,-1.36 1.415,-1.146 2.359,-1.15 7.15,-0.029 14.301,-0.036 21.451,-0.033 0.989,0 2.167,-0.028 2.167,1.368 0,1.293 -1.121,1.646 -2.12,1.552 -6.119,-0.578 -6.606,3.3 -6.584,7.914 0.071,14.136 0.088,28.273 -0.036,42.409 -0.041,4.632 1.039,7.873 6.498,7.677 0.959,-0.034 2.192,-0.059 2.227,1.333 0.043,1.765 -1.389,1.576 -2.514,1.527 -3.487,-0.15 -6.969,-0.372 -10.146,-0.549 z"
       id="path28-2" /><path
       fill-rule="evenodd"
       clip-rule="evenodd"
       fill="#fefefe"
       d="m 1691.8239,339.90667 c 0.02,-23.22 14.821,-34.234 33.167,-27.44 10.145,3.757 14.025,12.281 15.563,22.094 1.067,6.815 0.417,13.624 -1.995,20.181 -3.05,8.286 -9.022,13.147 -17.691,14.168 -8.824,1.038 -16.525,-1.539 -22.054,-8.902 -5.103,-6.795 -6.836,-14.678 -6.99,-20.101 z"
       id="path48-3" /><path
       fill-rule="evenodd"
       clip-rule="evenodd"
       fill="#fefefe"
       d="m 1374.6259,342.69867 c -0.212,1.597 -0.412,4.772 -1.084,7.845 -2.281,10.426 -8.804,16.724 -18.653,18.272 -10.099,1.588 -19.336,-2.822 -24.43,-11.852 -5.148,-9.124 -6.119,-19.007 -3.981,-29.033 2.216,-10.395 9.625,-16.254 20.556,-17.276 10.275,-0.961 20,4.479 24.126,13.497 2.34,5.112 3.502,10.798 3.466,18.547 z"
       id="path50-5" /></g><g
     transform="matrix(0.11678685,0,0,0.11769306,1394.6932,76.258896)"
     id="layer1"><path
       d="m 2727.119,-640.15386 c -34.9289,0 -273.0144,701.851524 -273.0144,701.851524 h 25.3688 c 0,0 34.9289,-89.723495 95.2684,-92.954376 60.2942,-3.230926 209.5277,317.284902 209.5277,317.284902 0,0 15.8508,99.32891 136.5299,99.32891 h 403.1663 v -28.8163 c 0,0 -85.7085,6.41819 -127.0118,-83.3053 -41.258,-89.76711 -441.2387,-913.38936 -469.8349,-913.38936 z m -333.354,326.89036 v -256.42145 c 0,0 -123.8193,-92.91072 -295.2361,-92.91072 -171.4552,0 -380.9864,83.3053 -380.9864,352.5194 0,256.421404 400.0227,307.6795183 400.0227,448.70474 0,73.69988 -60.2069,80.07437 -101.5976,80.07437 -136.4845,0 -269.8254,-205.075977 -269.8254,-205.075977 V 292.44638 c 0,0 136.4845,118.58346 307.9398,118.58346 171.4133,0 387.319,-102.55984 387.319,-371.773942 0,-320.472208 -409.5408,-326.890358 -409.5408,-467.915578 0,-73.69988 44.3142,-64.09446 85.705,-64.09446 136.5298,0 276.1998,179.49064 276.1998,179.49064 z M 923.87175,-531.21953 c 67.23803,139.7154 130.15535,336.53944 234.94185,336.53944 85.705,0 155.5627,-435.86835 155.5627,-435.86835 h 346.0156 V 273.2355 c 0,76.88715 88.894,96.09799 88.894,96.09799 h -453.9878 v -640.94434 c 0,0 -263.4962,689.01518 -288.8615,689.01518 -25.41078,0 -384.17547,-689.01518 -384.17547,-689.01518 v 554.40811 c 0,51.30177 79.37583,89.76715 79.37583,89.76715 H 498.43838 v -906.9712 c 0,-60.9072 -98.412,-102.55984 -98.412,-102.55984 h 352.3901 c 0,0 117.4902,-6.41816 171.45527,105.7471 z M -34.879813,324.49361 c 0,0 276.200133,25.62904 409.540903,-169.84153 L 320.6958,372.56441 h -717.52545 v -906.9712 c 0,-60.9072 -98.41226,-102.55984 -98.41226,-102.55984 H 320.6958 l 53.96529,217.91237 C 241.32032,-614.52483 -34.879813,-588.89579 -34.879813,-588.89579 v 423.03201 H 190.54075 c 69.81565,0 107.93002,-118.58346 107.93002,-118.58346 0,0 73.00107,336.539484 69.81578,333.308558 C 311.13244,-56.885791 136.53352,-111.37479 136.53352,-111.37479 H -34.879813 Z M -552.35056,-636.96663 h -815.93784 c 0,0 98.4118,41.65264 98.4118,102.55984 v 906.9712 h 457.17331 c 0,0 -95.22301,-32.04723 -95.22301,-105.79072 v -378.14848 h 171.41333 c 0,0 174.59906,54.488999 231.75317,160.236108 3.18528,3.230926 -69.81226,-333.308558 -69.81226,-333.308558 0,0 -38.11789,118.58346 -107.97561,118.58346 H -907.9263 v -423.03201 c 0,0 276.20013,-25.62904 409.54104,169.84153 l -53.9653,-217.91237"
       id="path7267"
       style="fill:#9b2c39;fill-opacity:1;fill-rule:evenodd;stroke:none;stroke-width:4.41419" /></g></g></svg>
